<?xml version="1.0" encoding="utf-8"?>
<!-- Generator: Adobe Illustrator 24.0.1, SVG Export Plug-In . SVG Version: 6.00 Build 0)  -->
<svg version="1.1" id="Layer_1" xmlns="http://www.w3.org/2000/svg" xmlns:xlink="http://www.w3.org/1999/xlink" x="0px" y="0px"
	 viewBox="0 0 458.5 232.5" style="enable-background:new 0 0 458.5 232.5;" xml:space="preserve">
<style type="text/css">
	.st0{fill-rule:evenodd;clip-rule:evenodd;fill:#ED1C24;}
	.st1{fill:#ED1C24;}
</style>
<g>
	<path class="st0" d="M71.34,81.46c-0.09-5.88,10.18-33.19,6.16-35.94c-4-2.74-24.17,11.18-26,18.12c-0.9,3.43,0.35,6.6,0.16,10.14
		c-0.18,3.41-0.48,7.02-0.84,10.45c-1.93,18.34-3.48,28.02-11.6,43.77c-1.26,2.19-2.84,4.32-4.1,6.96
		c2.27,1.98,10.45,0.41,12.65-1.4c5.93-4.89,12.96-24.82,15.93-32.48c1.29,2.04,2.61,10.23,3.58,13.39
		c1.36,4.41,2.7,8.43,4.43,12.53c2.04,4.86,3.15,8.21,7.68,9.34c5.04,1.26,9.41-2.86,11.47-4.99c1.78-1.84,5.95-7.04,6.08-10.75
		c0.17-4.68-6.45-5.04-8.48-8.35c-4.74-5.3-7.51-14.04-8.51-25.88c3.35-1.2,9.95-5.51,12.97-7.54c4.27-2.86,8.39-5.75,11.69-8.84
		c3.82-3.57,6.73-5.95,10.25-10.26c2.92-3.58,5.9-7.4,8.6-12.33c12.22-22.38,10.39-49.14-23.08-43.89
		C80.3,6.66,57.62,21.1,44.56,30.41C31.44,39.76,14.23,57.26,7.29,75.58c-3.4,11.56-2.44,23.83,6.18,29.5
		c4.8,2.49,11.08,3.51,16.53,1.21c7.62-3.21,11.72-13.05,9.43-19.81c-1.23-3.62-2.43-4.35-6.65-3.12
		c-8.03,2.34-10.71-2.25-8.82-9.93c4.17-16.96,26.74-32.16,41.82-39.89c6.65-3.41,24.82-12.02,31.31-4.23
		c6.19,7.44-2.94,24.5-6.51,30.38C83.41,71.46,80.32,73.37,71.34,81.46L71.34,81.46z"/>
	<path class="st0" d="M108.03,92.53c2.54,2.06-0.98,8.35-1.87,11.05c-1.3,3.95-2.48,7.57-3.82,11.41
		c-3.26,9.36-6.99,15.6,3.08,20.42c4.77,2.28,8.03,0.58,10.74-2.96l16.35-22.18c1.15-1.83,2.45-3.06,4-3.32
		c-0.83,7.37-8.83,19.65-4.91,26.51c4.45,7.78,19.45,1.67,25.72-0.72c-3.1,9.03-12.6,29.99-13.72,38.55
		c-1.76,13.44,19.77-0.15,23.61-4.64c2.63-3.87-0.44-6.62,0.47-11.21c1.44-7.28,7.6-20.19,11.37-28.32
		c3.77-8.13,8.78-17.51,13.76-25.75c6.89-11.2,9.09-10.95,9.27-15.45c-0.05-0.81-1.24-2.39-3.57-2.6c-1.93-0.13-4.23-0.06-6.18,0
		c-17.48,0.53-16.15,6.5-19.46,16.21c-1.96,5.73-4.44,11.4-7.1,16.39c-4.44,8.47-7.7,12.26-12.21,10.91
		c-3.64-2.58,0.21-9.03,1.79-12.97c1.55-3.84,3.13-8.06,4.77-12.18c3.29-8.24,10.65-20.67-5.84-19.18
		c-5.82,0.53-7.63,3.46-10.29,6.79c-2.48,3.11-4.94,6.25-7.51,9.5c-6.66,8.43-8.31,11.49-15.88,19.03c0.96-7.25,14.5-28.36,8.5-34.3
		c-4.24-4.2-13.79,0.78-17.86,2.56C92.57,94.22,106.43,91.39,108.03,92.53L108.03,92.53z"/>
	<path class="st0" d="M230.88,83.6c-17.07-0.01-24.48,9.34-32.54,19.74c-28.15,36.33-5.88,42.67,12.73,29.03l3.87-3.6
		c0.11,5.39,1.7,8.7,6.73,9.53c3.89,0.64,9.46-1.26,12.5-2.75c4.03-1.98,8.89-7.3,10.91-11.14l2.48-4.59
		c-1.13-0.13-2.67,2.12-3.94,2.87c-1.8,1.16-3.45,2.08-5.25,2.25c-4.65,0.95-3.35-5.95-2.85-10.45l1.41-13.18
		c9.69-5.03,15.4-12.7,14.05-22.6c-1.21,0.06-1.29,1.01-2.75,2.26C243.55,83.44,236.18,83.61,230.88,83.6L230.88,83.6z
		 M232.73,101.64c-2.92-0.91-5.53-0.24-9.08-0.63c-5.21,0.53-5.95,0.36-10.23,2.19c-2.37,1.21-5.55,3.25-7.01,5.22
		c-5.03,6.82,0.1,16.57,15.72,3.5L232.73,101.64L232.73,101.64z"/>
	<path class="st0" d="M135.35,54.19c-9.08,1.71-21,12.25-18.18,19.42c2.86,7.27,16.83,3.55,24.3-6.85c1.48-2.06,4-5.41,2.8-9.01
		C143.22,54.62,139.23,53.47,135.35,54.19L135.35,54.19z"/>
	<path class="st1" d="M92.85,171.4c0.38-0.47,1-0.68,1.81-0.61c0.83,0.07,1.44,0.35,1.83,0.82c0.38,0.49,0.7,1.06,0.95,1.74
		c0.26,0.68,0.21,1.39-0.15,2.13c-0.34,0.75-0.69,1.72-1,2.92c-0.33,1.21-0.74,2.9-1.24,5.07c-0.52,2.17-0.49,3.38,0.1,3.66
		c0.57,0.26,1.55,0.54,2.96,0.82c1.41,0.26,3.64,0.36,6.73,0.3c3.07-0.07,2.91,0.17-0.51,0.71c-3.42,0.54-5.95,1.04-7.58,1.47
		c-1.65,0.45-2.73,0.76-3.25,0.94c-0.54,0.19-1.42,2.08-2.7,5.66c-1.26,3.57-2.08,5.95-2.48,7.13c-0.39,1.2-0.82,1.98-1.27,2.39
		c-0.44,0.4-1.01,0.71-1.72,0.92c-0.7,0.19-1.34,0.16-1.91-0.1c-0.57-0.28-0.57-1.37,0.02-3.31c0.59-1.93,1.41-4.22,2.42-6.85
		c1.03-2.65,1.58-4.29,1.68-4.93c0.1-0.64-0.33-0.89-1.24-0.71c-0.93,0.16-1.75,0.26-2.47,0.28c-0.72,0.02-1.08-0.47-1.06-1.42
		c0.02-0.97,0.6-1.75,1.75-2.38c1.16-0.61,2.17-0.92,3.07-0.94c0.88-0.02,1.68-1.34,2.39-3.96c0.7-2.64,1.13-4.37,1.24-5.24
		c0.13-0.87,0.34-2.05,0.62-3.54C92.13,172.86,92.47,171.89,92.85,171.4L92.85,171.4z M114.73,153.46c1.67-0.4,3.02-0.17,4.07,0.66
		c1.06,0.85,0.85,2.34-0.62,4.48c-1.47,2.13-3.53,6.65-6.18,13.5c-2.65,6.87-4.36,11.73-5.16,14.61c-0.8,2.88-0.87,3.94-0.2,3.16
		c0.67-0.78,1.34-1.47,1.99-2.12c0.65-0.62,1.37-1.27,2.17-1.93c0.8-0.66,1.52-1.15,2.17-1.44c0.65-0.31,1.39-0.54,2.17-0.69
		c0.8-0.16,1.54-0.03,2.19,0.36c0.65,0.38,1.16,0.89,1.54,1.49c0.36,0.61,0.59,1.72,0.67,3.3c0.07,1.6-0.02,3.26-0.28,5.01
		c-0.25,1.75-0.26,3.05-0.05,3.94c0.23,0.89,0.64,1.67,1.23,2.34c0.59,0.68,1.6,0.83,3.04,0.49c1.44-0.36,2.55-0.99,3.35-1.89
		c0.8-0.9,0.98-0.83,0.56,0.17c-0.42,1.02-1.06,1.93-1.91,2.72c-0.85,0.8-1.88,1.49-3.09,2.08c-1.21,0.59-2.21,0.9-2.97,0.92
		c-0.77,0.02-1.55-0.33-2.34-1.02c-0.8-0.69-1.34-1.68-1.63-2.98c-0.29-1.32-0.34-3.33-0.2-6.09c0.16-2.74-0.02-4.37-0.54-4.89
		c-0.54-0.52-1.9,0.07-4.07,1.8c-2.19,1.72-3.84,3.68-4.97,5.85c-1.11,2.17-1.94,4.01-2.48,5.52c-0.54,1.49-1.21,2.13-2.01,1.89
		c-0.8-0.23-1.42-0.62-1.86-1.16c-0.46-0.54-0.67-1.32-0.67-2.31c0-1.01,0.95-4.88,2.88-11.63c1.91-6.73,4.08-13.33,6.55-19.76
		c2.45-6.44,3.89-10.36,4.31-11.75C112.8,156.7,113.58,155.16,114.73,153.46L114.73,153.46z M137.77,182.28
		c2.12-0.16,3.43,0.23,3.89,1.15c0.47,0.94,0.69,2.12,0.65,3.56c-0.03,1.44-0.67,2.67-1.91,3.66c-1.24,1.01-2.89,2-4.93,2.99
		c-0.57,0.23-1.09,0.36-1.55,0.38c-0.47,0.02-0.85,0-1.16-0.05c-0.29-0.05-0.54-0.1-0.7-0.16c-0.18-0.05-0.29-0.02-0.33,0.07
		c-0.57,0.99-0.87,1.98-0.88,2.95c-0.02,0.99,0.29,1.89,0.92,2.72c0.62,0.83,1.32,1.32,2.07,1.46c0.77,0.12,1.57,0.1,2.4-0.09
		c0.83-0.19,2.35-0.76,4.59-1.75c2.24-0.99,3.79-1.91,4.67-2.78c0.87-0.85,1.72-1.7,2.52-2.52c0.78-0.8,0.9-0.8,0.33,0
		c-0.57,0.82-1.29,1.8-2.12,2.95c-0.85,1.16-1.9,2.31-3.17,3.44c-1.26,1.15-2.29,2.01-3.09,2.62c-0.78,0.61-1.85,1.16-3.17,1.65
		c-1.32,0.49-2.63,0.64-3.91,0.47c-1.27-0.19-2.24-0.5-2.88-0.95c-0.64-0.43-1.23-0.95-1.76-1.56c-0.56-0.62-1-1.34-1.34-2.17
		c-0.36-0.83-0.54-1.96-0.56-3.4c-0.02-1.44,0.29-3.02,0.95-4.7c0.67-1.7,1.41-3.11,2.24-4.22c0.83-1.13,1.94-2.26,3.37-3.38
		C134.32,183.46,135.94,182.7,137.77,182.28L137.77,182.28z M137.82,186.86c-0.23-0.24-0.78-0.12-1.67,0.36
		c-0.87,0.47-1.5,1.01-1.91,1.6c-0.39,0.59-0.47,1.02-0.21,1.3c0.26,0.26,0.8,0.16,1.63-0.33c0.83-0.5,1.49-0.99,1.98-1.47
		C138.14,187.82,138.19,187.33,137.82,186.86L137.82,186.86z M175.33,171.4c0.38-0.47,1-0.68,1.81-0.61
		c0.83,0.07,1.44,0.35,1.83,0.82c0.38,0.49,0.7,1.06,0.95,1.74c0.26,0.68,0.21,1.39-0.15,2.13c-0.34,0.75-0.69,1.72-1,2.92
		c-0.33,1.21-0.74,2.9-1.24,5.07c-0.52,2.17-0.49,3.38,0.1,3.66c0.57,0.26,1.55,0.54,2.96,0.82c1.41,0.26,3.64,0.36,6.73,0.3
		c3.07-0.07,2.91,0.17-0.51,0.71c-3.41,0.54-5.95,1.04-7.58,1.47c-1.65,0.45-2.73,0.76-3.25,0.94c-0.54,0.19-1.42,2.08-2.7,5.66
		c-1.26,3.57-2.08,5.95-2.48,7.13c-0.39,1.2-0.82,1.98-1.27,2.39c-0.44,0.4-1.01,0.71-1.72,0.92c-0.7,0.19-1.34,0.16-1.91-0.1
		c-0.57-0.28-0.57-1.37,0.02-3.31c0.59-1.93,1.41-4.22,2.42-6.85c1.03-2.65,1.58-4.29,1.68-4.93c0.1-0.64-0.33-0.89-1.24-0.71
		c-0.93,0.16-1.75,0.26-2.47,0.28c-0.72,0.02-1.08-0.47-1.06-1.42c0.02-0.97,0.6-1.75,1.75-2.38c1.16-0.61,2.17-0.92,3.07-0.94
		c0.88-0.02,1.68-1.34,2.39-3.96c0.7-2.64,1.13-4.37,1.24-5.24c0.13-0.87,0.34-2.05,0.62-3.54
		C174.61,172.86,174.96,171.89,175.33,171.4L175.33,171.4z M184.43,189.46c1.14-4.72,2.26-7.03,3.32-6.92
		c1.08,0.1,1.88,0.61,2.42,1.53c0.56,0.92,0.49,2.05-0.16,3.38c-0.65,1.34-0.72,1.96-0.2,1.87c0.54-0.09,1.23-0.42,2.09-1.01
		c0.87-0.61,1.68-1.08,2.47-1.42c0.78-0.36,1.41-0.59,1.9-0.69c0.47-0.1,1.39,0.07,2.75,0.5c1.36,0.45,2.65,1.06,3.86,1.86
		c1.21,0.8,2.81,0.87,4.8,0.21c1.99-0.66,1.78-0.43-0.64,0.66c-2.43,1.11-4.92,1.61-7.45,1.54c-2.53-0.05-4.49,0.26-5.88,0.97
		c-1.39,0.71-2.57,1.51-3.53,2.36c-0.95,0.87-1.83,2.29-2.65,4.27c-0.82,2-1.44,3.66-1.86,5.01c-0.44,1.35-0.82,2.46-1.16,3.33
		c-0.33,0.87-1.01,1.32-2.06,1.37c-1.03,0.05-1.72-0.35-2.06-1.2c-0.33-0.85-0.41-1.39-0.23-1.65c0.16-0.26,0.65-1.8,1.44-4.65
		C182.36,197.95,183.32,194.17,184.43,189.46L184.43,189.46z M218.94,182.59c0.74-0.21,1.54-0.24,2.42-0.1
		c0.88,0.14,1.59,0.43,2.11,0.87c0.52,0.43,1.03,1.3,1.5,2.59c0.49,1.3,0.26,2.15-0.64,2.6c-0.91,0.43-1.73,0.28-2.47-0.47
		c-0.74-0.75-1.5-0.89-2.3-0.45c-0.8,0.43-1.58,0.89-2.37,1.35c-0.78,0.45-1.75,1.18-2.89,2.15c-1.14,0.99-2.34,2.24-3.55,3.77
		c-1.21,1.53-1.88,2.5-2.01,2.92c-0.13,0.43,0.18,0.36,0.93-0.17c0.75-0.54,1.91-1.35,3.45-2.46c1.55-1.09,3.5-2.22,5.85-3.38
		c2.34-1.15,3.82-1.6,4.44-1.34c0.62,0.24,1.16,0.71,1.6,1.39c0.46,0.68,0.7,1.27,0.77,1.75c0.07,0.5,0,0.89-0.21,1.18
		c-0.21,0.28-0.44,0.94-0.72,1.94c-0.28,1.02-0.25,2.01,0.07,2.95c0.33,0.95,0.73,1.61,1.23,1.96c0.49,0.36,1.18,0.47,2.04,0.31
		c0.85-0.16,1.91-0.85,3.17-2.08c1.27-1.25,1.21-0.95-0.16,0.85c-1.37,1.82-2.45,2.97-3.25,3.47c-0.8,0.49-1.42,0.73-1.86,0.71
		c-0.46-0.02-1.03-0.17-1.75-0.47c-0.72-0.28-1.41-0.73-2.04-1.34c-0.64-0.61-1.14-1.35-1.5-2.24c-0.36-0.89-0.62-1.54-0.74-1.96
		c-0.13-0.42-0.42-0.88-0.9-1.41c-0.46-0.5-1.03-0.61-1.7-0.33c-0.67,0.3-1.83,1.08-3.51,2.38c-1.68,1.28-3.24,2.34-4.69,3.18
		c-1.45,0.83-2.76,1.41-3.9,1.72c-1.14,0.33-1.9,0.43-2.22,0.33c-0.34-0.09-0.7-0.47-1.09-1.15c-0.41-0.66-0.64-1.37-0.7-2.15
		c-0.06-0.78,0.03-1.56,0.31-2.36c0.28-0.8,1.29-2.39,3.07-4.79c1.76-2.38,3.46-4.34,5.11-5.87c1.65-1.53,3.4-2.83,5.25-3.89
		C216.92,183.48,218.21,182.84,218.94,182.59L218.94,182.59z M249.16,184.33c0.34-0.31,0.77-0.45,1.29-0.43
		c0.51,0.02,0.95,0.21,1.34,0.61c0.38,0.38,0.85,0.88,1.44,1.49c0.57,0.61,1.37,1.01,2.39,1.2c1.03,0.19,2.75,0.04,5.16-0.45
		c2.43-0.5,2.42-0.4-0.05,0.28c-2.45,0.68-4.48,1.22-6.09,1.63c-1.62,0.4-2.84,1.06-3.69,1.98c-0.83,0.92-1.8,2.08-2.89,3.51
		c-1.08,1.42-2.32,3.26-3.73,5.48c-1.4,2.24-2.34,3.77-2.78,4.58c-0.46,0.82-1.03,1.49-1.73,2.03c-0.7,0.56-1.47,0.61-2.29,0.21
		c-0.83-0.4-1.44-1.02-1.83-1.82c-0.38-0.82-0.6-1.77-0.67-2.85c-0.07-1.09-0.38-2.52-0.95-4.29c-0.57-1.75-1.27-3.45-2.09-5.08
		c-0.82-1.61-1-2.85-0.57-3.64c0.42-0.82,1.09-1.3,1.99-1.44c0.88-0.12,1.65,0.21,2.29,1.02c0.64,0.82,1.24,2.1,1.83,3.84
		c0.57,1.75,0.93,3.07,1.09,3.97c0.16,0.9,0.47,1.18,0.96,0.83c0.47-0.33,1.96-2.31,4.44-5.9c2.48-3.59,3.87-5.55,4.17-5.87
		C248.47,184.88,248.8,184.59,249.16,184.33L249.16,184.33z M264.38,182.28c2.12-0.16,3.43,0.23,3.89,1.15
		c0.47,0.94,0.69,2.12,0.65,3.56c-0.03,1.44-0.67,2.67-1.91,3.66c-1.24,1.01-2.89,2-4.93,2.99c-0.57,0.23-1.09,0.36-1.55,0.38
		c-0.47,0.02-0.85,0-1.16-0.05c-0.29-0.05-0.54-0.1-0.7-0.16c-0.18-0.05-0.29-0.02-0.33,0.07c-0.57,0.99-0.87,1.98-0.88,2.95
		c-0.02,0.99,0.29,1.89,0.92,2.72c0.62,0.83,1.32,1.32,2.08,1.46c0.77,0.12,1.57,0.1,2.4-0.09c0.83-0.19,2.35-0.76,4.59-1.75
		c2.24-0.99,3.79-1.91,4.67-2.78c0.87-0.85,1.72-1.7,2.52-2.52c0.78-0.8,0.9-0.8,0.33,0c-0.57,0.82-1.29,1.8-2.12,2.95
		c-0.85,1.16-1.9,2.31-3.17,3.44c-1.26,1.15-2.29,2.01-3.09,2.62c-0.78,0.61-1.85,1.16-3.17,1.65c-1.32,0.49-2.63,0.64-3.91,0.47
		c-1.27-0.19-2.24-0.5-2.88-0.95c-0.64-0.43-1.23-0.95-1.77-1.56c-0.56-0.62-1-1.34-1.34-2.17c-0.36-0.83-0.54-1.96-0.56-3.4
		c-0.02-1.44,0.29-3.02,0.95-4.7c0.67-1.7,1.41-3.11,2.24-4.22c0.83-1.13,1.94-2.26,3.37-3.38
		C260.94,183.46,262.55,182.7,264.38,182.28L264.38,182.28z M264.43,186.86c-0.23-0.24-0.78-0.12-1.67,0.36
		c-0.87,0.47-1.5,1.01-1.91,1.6c-0.39,0.59-0.47,1.02-0.21,1.3c0.26,0.26,0.8,0.16,1.63-0.33c0.83-0.5,1.49-0.99,1.98-1.47
		C264.76,187.82,264.81,187.33,264.43,186.86L264.43,186.86z M285.63,167.7c1.29-2.13,2.35-3,3.19-2.6
		c0.85,0.42,1.31,0.94,1.37,1.58c0.07,0.64-1.32,3.96-4.15,9.91c-2.83,5.97-4.87,11.52-6.13,16.66c-1.26,5.14-1.7,8.02-1.31,8.66
		c0.38,0.64,1.06,0.83,2.06,0.57c0.98-0.28,3.51-1.75,7.57-4.41s6.54-4.41,7.47-5.24c0.91-0.82,0.33-0.19-1.78,1.89
		c-2.11,2.08-3.69,3.64-4.76,4.67c-1.08,1.04-2.14,2.15-3.19,3.37c-1.06,1.2-2.34,2.24-3.86,3.12c-1.52,0.88-2.84,1.35-3.97,1.44
		c-1.13,0.09-1.96-0.19-2.48-0.83c-0.54-0.64-1.03-1.42-1.52-2.34c-0.47-0.92-0.51-2.6-0.11-5.05c0.39-2.46,1.5-6.47,3.33-12.03
		c1.81-5.55,3.33-9.65,4.54-12.29C283.11,172.16,284.35,169.8,285.63,167.7L285.63,167.7z M317.47,182.28
		c2.12-0.16,3.43,0.23,3.89,1.15c0.47,0.94,0.69,2.12,0.65,3.56c-0.03,1.44-0.67,2.67-1.91,3.66c-1.24,1.01-2.89,2-4.93,2.99
		c-0.57,0.23-1.1,0.36-1.55,0.38c-0.47,0.02-0.85,0-1.16-0.05c-0.29-0.05-0.54-0.1-0.7-0.16c-0.18-0.05-0.29-0.02-0.33,0.07
		c-0.57,0.99-0.87,1.98-0.88,2.95c-0.02,0.99,0.29,1.89,0.92,2.72c0.62,0.83,1.32,1.32,2.08,1.46c0.77,0.12,1.57,0.1,2.4-0.09
		c0.83-0.19,2.35-0.76,4.59-1.75c2.24-0.99,3.79-1.91,4.67-2.78c0.87-0.85,1.72-1.7,2.52-2.52c0.78-0.8,0.9-0.8,0.33,0
		c-0.57,0.82-1.29,1.8-2.12,2.95c-0.85,1.16-1.9,2.31-3.17,3.44c-1.26,1.15-2.29,2.01-3.09,2.62c-0.78,0.61-1.85,1.16-3.17,1.65
		c-1.32,0.49-2.63,0.64-3.91,0.47c-1.27-0.19-2.24-0.5-2.88-0.95c-0.64-0.43-1.23-0.95-1.76-1.56c-0.56-0.62-1-1.34-1.34-2.17
		c-0.36-0.83-0.54-1.96-0.56-3.4c-0.02-1.44,0.29-3.02,0.95-4.7c0.67-1.7,1.41-3.11,2.24-4.22c0.83-1.13,1.94-2.26,3.37-3.38
		C314.02,183.46,315.64,182.7,317.47,182.28L317.47,182.28z M317.52,186.86c-0.23-0.24-0.78-0.12-1.67,0.36
		c-0.87,0.47-1.5,1.01-1.91,1.6c-0.39,0.59-0.47,1.02-0.21,1.3c0.26,0.26,0.8,0.16,1.63-0.33c0.83-0.5,1.49-0.99,1.98-1.47
		C317.85,187.82,317.9,187.33,317.52,186.86L317.52,186.86z M350.12,183.86c0.67,0.1,1.06,0.47,1.19,1.09
		c0.13,0.62,0.13,1.32,0,2.08c-0.13,0.76-0.49,1.28-1.09,1.56c-0.62,0.26-1.67,0.92-3.19,1.98c-1.52,1.06-2.97,2.15-4.38,3.33
		c-1.4,1.16-1.99,2.19-1.78,3.05c0.23,0.85,0.87,2.27,1.9,4.22c1.03,1.94,1.83,2.79,2.37,2.57c0.54-0.24,1.37-1.79,2.48-4.65
		c1.13-2.86,1.18-2.81,0.18,0.14c-1.01,2.97-1.83,4.93-2.47,5.85c-0.64,0.94-1.42,1.41-2.35,1.42c-0.92,0.02-1.8-0.54-2.63-1.7
		c-0.83-1.15-1.63-2.29-2.39-3.42c-0.77-1.15-1.55-1.44-2.34-0.92c-0.77,0.52-1.7,1.3-2.79,2.36c-1.08,1.06-2.09,1.87-3.04,2.46
		c-0.95,0.59-1.72,0.99-2.32,1.2c-0.6,0.21-1,0.1-1.14-0.31c-0.16-0.4-0.25-0.89-0.25-1.44c0-0.56,0.25-1.11,0.72-1.63
		c0.47-0.52,1.54-1.58,3.19-3.14c1.63-1.58,2.83-2.74,3.55-3.47c0.72-0.73,1.05-1.34,0.98-1.82c-0.06-0.49-0.57-1.74-1.52-3.71
		c-0.93-1.98-1.78-3.02-2.53-3.11c-0.75-0.09-1.93,0.87-3.55,2.83c-1.6,1.96-2.63,3.18-3.09,3.66c-0.44,0.47-0.23,0.05,0.62-1.25
		c0.87-1.3,1.7-2.52,2.52-3.61c0.82-1.09,1.6-2.2,2.37-3.33c0.77-1.11,1.52-2.05,2.25-2.79c0.74-0.75,1.37-1.06,1.91-0.94
		c0.54,0.12,1.09,0.73,1.65,1.86c0.56,1.11,1.08,2.19,1.55,3.23c0.49,1.02,0.9,1.93,1.26,2.67c0.34,0.75,0.77,0.97,1.29,0.68
		c0.51-0.3,1.24-0.85,2.22-1.68c0.96-0.82,2.16-1.86,3.56-3.09c1.4-1.25,2.43-1.96,3.09-2.13
		C348.78,183.75,349.45,183.72,350.12,183.86L350.12,183.86z M352.42,184.73c2.83-2.03,4.58-3.18,5.21-3.4
		c0.64-0.24,1.18-0.16,1.6,0.24c0.42,0.42,0.69,0.92,0.77,1.51c0.08,0.59-0.1,1.89-0.51,3.89c-0.41,2-0.41,2.81,0,2.45
		c0.41-0.38,1.01-0.75,1.78-1.13c0.75-0.36,1.72-0.78,2.89-1.21c1.16-0.45,2.25-0.63,3.27-0.56c1.03,0.07,1.8,0.33,2.34,0.78
		c0.52,0.45,0.85,0.83,1,1.11c0.15,0.29,0.34,0.71,0.57,1.25c0.25,0.54,0.36,0.89,0.36,0.99c0,0.12,0.03,0.38,0.1,0.76
		c0.07,0.4,0.03,1.04-0.1,1.94c-0.13,0.88-0.47,1.98-1.03,3.24c-0.56,1.27-1.39,2.46-2.52,3.56c-1.11,1.11-2.08,1.89-2.86,2.36
		c-0.8,0.49-1.65,0.9-2.57,1.28c-0.91,0.36-1.85,0.62-2.83,0.78c-0.98,0.16-1.73,0.02-2.3-0.43c-0.56-0.43-0.83-0.94-0.85-1.49
		c-0.02-0.56,0.15-1.2,0.49-1.91c0.36-0.71,0.72-1.35,1.08-1.91c0.38-0.55,0.98-1.21,1.85-1.98c0.87-0.76,1.76-1.37,2.71-1.8
		c0.93-0.45,1.68-0.73,2.22-0.85c0.54-0.1,0.18,0.3-1.08,1.2c-1.26,0.92-2.37,1.82-3.3,2.71c-0.95,0.87-1.24,1.51-0.91,1.93
		c0.34,0.4,0.95,0.43,1.81,0.07c0.88-0.35,2.16-1.41,3.84-3.18c1.67-1.75,2.22-3.28,1.62-4.55c-0.59-1.27-1.72-1.58-3.4-0.92
		c-1.67,0.66-3.15,1.61-4.46,2.83c-1.32,1.22-2.7,3.68-4.12,7.39c-1.44,3.71-2.47,6.46-3.07,8.24c-0.6,1.77-1.4,4.22-2.42,7.34
		c-1,3.12-2.17,6.14-3.51,9.08c-1.34,2.93-2.43,4.22-3.28,3.87c-0.85-0.36-1.36-0.85-1.55-1.46c-0.2-0.61-0.25-1.25-0.16-1.93
		c0.08-0.68,0.34-1.54,0.78-2.57c0.44-1.04,1.05-2.76,1.81-5.15c0.77-2.41,2.39-7.05,4.87-13.92c2.47-6.85,3.94-10.93,4.4-12.2
		c0.47-1.27,1.06-3.14,1.8-5.62c0.74-2.46,0.8-3.59,0.21-3.37c-0.59,0.21-1.88,0.88-3.86,2.03
		C349.14,187.16,349.58,186.72,352.42,184.73L352.42,184.73z M383.16,182.28c2.12-0.16,3.43,0.23,3.89,1.15
		c0.47,0.94,0.69,2.12,0.65,3.56c-0.03,1.44-0.67,2.67-1.91,3.66c-1.24,1.01-2.89,2-4.93,2.99c-0.57,0.23-1.09,0.36-1.55,0.38
		c-0.47,0.02-0.85,0-1.16-0.05c-0.29-0.05-0.54-0.1-0.7-0.16c-0.18-0.05-0.29-0.02-0.33,0.07c-0.57,0.99-0.87,1.98-0.88,2.95
		c-0.02,0.99,0.29,1.89,0.92,2.72c0.62,0.83,1.32,1.32,2.08,1.46c0.77,0.12,1.57,0.1,2.4-0.09c0.83-0.19,2.35-0.76,4.59-1.75
		c2.24-0.99,3.79-1.91,4.67-2.78c0.87-0.85,1.72-1.7,2.52-2.52c0.78-0.8,0.9-0.8,0.33,0c-0.57,0.82-1.29,1.8-2.12,2.95
		c-0.85,1.16-1.9,2.31-3.17,3.44c-1.26,1.15-2.29,2.01-3.09,2.62c-0.78,0.61-1.85,1.16-3.17,1.65c-1.32,0.49-2.63,0.64-3.91,0.47
		c-1.27-0.19-2.24-0.5-2.88-0.95c-0.64-0.43-1.23-0.95-1.77-1.56c-0.56-0.62-1-1.34-1.34-2.17c-0.36-0.83-0.54-1.96-0.56-3.4
		c-0.02-1.44,0.29-3.02,0.95-4.7c0.67-1.7,1.41-3.11,2.24-4.22c0.83-1.13,1.94-2.26,3.37-3.38
		C379.71,183.46,381.33,182.7,383.16,182.28L383.16,182.28z M383.21,186.86c-0.23-0.24-0.78-0.12-1.67,0.36
		c-0.87,0.47-1.5,1.01-1.91,1.6c-0.39,0.59-0.47,1.02-0.21,1.3c0.26,0.26,0.8,0.16,1.63-0.33c0.83-0.5,1.49-0.99,1.98-1.47
		C383.53,187.82,383.58,187.33,383.21,186.86L383.21,186.86z M395.27,189.46c1.14-4.72,2.25-7.03,3.32-6.92
		c1.08,0.1,1.88,0.61,2.42,1.53c0.56,0.92,0.49,2.05-0.16,3.38c-0.65,1.34-0.72,1.96-0.2,1.87c0.54-0.09,1.22-0.42,2.09-1.01
		c0.87-0.61,1.68-1.08,2.47-1.42c0.78-0.36,1.41-0.59,1.9-0.69c0.47-0.1,1.39,0.07,2.75,0.5c1.36,0.45,2.65,1.06,3.86,1.86
		c1.21,0.8,2.81,0.87,4.8,0.21c1.99-0.66,1.78-0.43-0.64,0.66c-2.44,1.11-4.92,1.61-7.45,1.54c-2.53-0.05-4.49,0.26-5.88,0.97
		c-1.39,0.71-2.57,1.51-3.53,2.36c-0.95,0.87-1.83,2.29-2.65,4.27c-0.82,2-1.44,3.66-1.86,5.01c-0.44,1.35-0.82,2.46-1.16,3.33
		c-0.33,0.87-1.01,1.32-2.06,1.37c-1.03,0.05-1.72-0.35-2.06-1.2c-0.33-0.85-0.41-1.39-0.23-1.65c0.16-0.26,0.65-1.8,1.44-4.65
		C393.19,197.95,394.16,194.17,395.27,189.46L395.27,189.46z M423.8,171.4c0.38-0.47,1-0.68,1.81-0.61
		c0.83,0.07,1.44,0.35,1.83,0.82c0.38,0.49,0.7,1.06,0.95,1.74c0.26,0.68,0.21,1.39-0.15,2.13c-0.34,0.75-0.69,1.72-1,2.92
		c-0.33,1.21-0.74,2.9-1.24,5.07c-0.52,2.17-0.49,3.38,0.1,3.66c0.57,0.26,1.55,0.54,2.96,0.82c1.41,0.26,3.64,0.36,6.73,0.3
		c3.07-0.07,2.91,0.17-0.51,0.71c-3.41,0.54-5.95,1.04-7.58,1.47c-1.65,0.45-2.73,0.76-3.25,0.94c-0.54,0.19-1.42,2.08-2.7,5.66
		c-1.26,3.57-2.08,5.95-2.48,7.13c-0.39,1.2-0.82,1.98-1.27,2.39c-0.44,0.4-1.01,0.71-1.72,0.92c-0.7,0.19-1.34,0.16-1.91-0.1
		c-0.57-0.28-0.57-1.37,0.02-3.31c0.59-1.93,1.41-4.22,2.42-6.85c1.03-2.65,1.58-4.29,1.68-4.93c0.1-0.64-0.33-0.89-1.24-0.71
		c-0.93,0.16-1.75,0.26-2.47,0.28c-0.72,0.02-1.08-0.47-1.06-1.42c0.02-0.97,0.6-1.75,1.75-2.38c1.16-0.61,2.17-0.92,3.07-0.94
		c0.88-0.02,1.68-1.34,2.39-3.96c0.7-2.64,1.13-4.37,1.24-5.24c0.13-0.87,0.34-2.05,0.62-3.54
		C423.08,172.86,423.42,171.89,423.8,171.4L423.8,171.4z"/>
	<path class="st1" d="M449.37,154.69c1.08-0.95,2.01-1.3,2.78-1.02c0.75,0.28,1.31,0.78,1.62,1.53c0.33,0.75,0.26,1.86-0.18,3.35
		c-0.46,1.49-0.87,2.55-1.26,3.16c-0.38,0.61-1.18,2.03-2.39,4.27c-1.21,2.24-1.98,3.73-2.3,4.48c-0.31,0.75-0.82,2.5-1.49,5.26
		c-0.67,2.76-1.39,4.79-2.14,6.07c-0.77,1.28-1.13,2.17-1.06,2.64c0.07,0.49-0.28,1.13-1.05,1.94c-0.77,0.82-1.41,0.57-1.93-0.71
		c-0.51-1.28-0.78-2.31-0.85-3.05c-0.07-0.75,0.72-3.92,2.34-9.53c1.63-5.62,3.09-9.84,4.36-12.69
		C447.1,157.53,448.27,155.63,449.37,154.69L449.37,154.69z M436,203.03c0.42-0.24,1.01-0.16,1.78,0.24
		c0.77,0.42,1.34,0.68,1.75,0.8c0.39,0.12,0.65,0.42,0.77,0.92c0.1,0.49,0.03,1.2-0.23,2.15c-0.24,0.95-0.47,1.63-0.69,2.06
		c-0.21,0.42-0.56,0.66-1.06,0.71c-0.49,0.05-1.14-0.14-1.98-0.54c-0.83-0.4-1.5-0.95-2.01-1.63c-0.51-0.68-0.6-1.46-0.29-2.34
		c0.33-0.87,0.64-1.44,0.93-1.7C435.28,203.47,435.63,203.22,436,203.03L436,203.03z"/>
	<path class="st0" d="M257.3,67.43c0.97,0,1.92,0.25,2.85,0.75c0.93,0.5,1.65,1.22,2.17,2.15c0.52,0.93,0.78,1.9,0.78,2.91
		c0,1-0.25,1.96-0.77,2.88c-0.51,0.92-1.23,1.64-2.15,2.15c-0.92,0.51-1.88,0.77-2.89,0.77c-1.01,0-1.97-0.26-2.89-0.77
		c-0.92-0.51-1.64-1.23-2.15-2.15c-0.51-0.92-0.77-1.88-0.77-2.88c0-1.01,0.26-1.98,0.78-2.91c0.52-0.93,1.24-1.65,2.17-2.15
		C255.38,67.68,256.33,67.43,257.3,67.43L257.3,67.43z M257.3,68.39c-0.82,0-1.61,0.21-2.38,0.63c-0.77,0.42-1.38,1.02-1.81,1.79
		c-0.44,0.78-0.65,1.59-0.65,2.43c0,0.84,0.22,1.64,0.64,2.4c0.43,0.77,1.03,1.37,1.8,1.79c0.77,0.43,1.57,0.64,2.41,0.64
		c0.83,0,1.64-0.22,2.41-0.64c0.77-0.43,1.37-1.03,1.79-1.79c0.43-0.77,0.64-1.57,0.64-2.4c0-0.84-0.22-1.65-0.65-2.43
		c-0.43-0.77-1.04-1.37-1.81-1.79C258.9,68.6,258.11,68.39,257.3,68.39L257.3,68.39z M254.76,76.44V70.2h2.14
		c0.73,0,1.27,0.06,1.59,0.17c0.33,0.12,0.59,0.32,0.78,0.6c0.19,0.29,0.29,0.59,0.29,0.92c0,0.46-0.16,0.85-0.49,1.19
		c-0.33,0.34-0.76,0.53-1.3,0.57c0.22,0.09,0.4,0.2,0.53,0.33c0.25,0.25,0.56,0.66,0.92,1.24l0.76,1.22h-1.23l-0.55-0.98
		c-0.44-0.77-0.78-1.26-1.05-1.45c-0.18-0.14-0.45-0.22-0.81-0.22h-0.59v2.65H254.76L254.76,76.44z M255.76,72.93h1.22
		c0.58,0,0.98-0.09,1.19-0.26c0.21-0.17,0.32-0.4,0.32-0.69c0-0.18-0.05-0.35-0.15-0.5c-0.1-0.14-0.24-0.25-0.43-0.33
		c-0.18-0.07-0.52-0.11-1.01-0.11h-1.14V72.93L255.76,72.93z"/>
</g>
</svg>
